<?xml version="1.0" encoding="utf-8"?>
<!-- Generator: Adobe Illustrator 25.0.1, SVG Export Plug-In . SVG Version: 6.00 Build 0)  -->
<svg version="1.1" id="Calque_1" xmlns="http://www.w3.org/2000/svg" xmlns:xlink="http://www.w3.org/1999/xlink" x="0px" y="0px"
	 viewBox="0 0 1039.38 316.24" style="enable-background:new 0 0 1039.38 316.24;" xml:space="preserve">
<style type="text/css">
	.st0{fill:#C2171D;}
</style>
<g>
	<path id="XMLID_17_" class="st0" d="M539.94,91.74c-3.19-2.22-7.23-3.19-12.14-2.92c-5.44,0.3-9.9,2.12-13.38,5.44
		c-3.48,3.32-5.09,7.31-4.83,11.95c0.26,4.65,1.85,8.18,4.79,10.62c2.93,2.43,7.18,3.5,12.76,3.19c5.7-0.32,10.2-2.13,13.47-5.44
		c3.28-3.31,4.77-7.62,4.48-12.93C544.84,97.26,543.13,93.96,539.94,91.74z"/>
	<path id="XMLID_14_" class="st0" d="M525.68,133.27c-5.44,0.3-9.35,1.35-11.71,3.15c-2.36,1.8-3.96,4.78-4.79,8.95
		c-1.63,8.63-2.92,17.74-3.99,27.14c-3.5,3.09-6.58,4.79-9.2,4.94c-3.32,0.18-5.11-2.04-5.36-6.69c-0.07-1.33,0.27-4.67,1.03-10.04
		c0.83-6.7,1.19-10.91,1.09-12.64c-0.48-8.63-5.03-12.7-13.66-12.22c-4.38,0.24-9.1,2.04-14.18,5.38
		c-5.08,3.35-10.13,8.75-15.17,16.22c-5.05,7.47-9.44,17.04-13.18,28.69c0.2-5.87,0.6-10.82,1.17-14.84s1.37-8.73,2.41-14.11
		c1.58-7.54,2.31-12.38,2.19-14.5c-0.1-1.86-0.7-3.09-1.81-3.69c-1.1-0.6-2.97-0.83-5.63-0.68c-4.91,0.27-8.68,1.38-11.29,3.32
		c-2.62,1.94-4.42,4.87-5.4,8.79c-3.73,14.57-5.23,29.79-4.71,45.59c-3.81,4.59-7.25,8.26-10.31,10.95
		c-4.19,3.7-9.13,5.7-14.84,6.02c-7.03,0.39-12.33-2.11-15.89-7.5c-3.56-5.39-5.73-14.99-6.5-28.79c-0.21-3.71-0.37-8.89-0.46-15.55
		l24.28-1.35c15-0.83,22.24-5.83,21.73-14.99c-0.14-2.52-0.7-4.22-1.68-5.1c-0.98-0.88-2.53-1.26-4.66-1.14l-22.29,1.24
		c16.4-16.22,24.03-34.62,22.89-55.19c-0.41-7.43-2.35-13.51-5.81-18.25c-3.46-4.73-7.97-6.94-13.55-6.63
		c-7.56,0.42-14.43,4.4-20.61,11.93c-6.17,7.53-11.24,17.47-15.21,29.8c-3.97,12.34-6.68,25.87-8.13,40.59l-11.34,0.63
		c-5.97,0.33-8.75,4.22-8.34,11.65c0.18,3.19,1,5.47,2.48,6.85c1.47,1.39,4.2,1.96,8.18,1.74l7.76-0.43
		c-0.06,5.99,0.06,11.91,0.39,17.75c0.24,4.34,0.67,8.39,1.23,12.22c-1.16,0.49-2.25,1.23-3.21,2.47
		c-5.7,7.64-10.28,13.19-13.75,16.64c-3.47,3.46-6.53,5.26-9.19,5.4c-1.72,0.1-3.16-0.52-4.3-1.86c-1.14-1.33-1.78-3.26-1.92-5.78
		c-0.22-3.98,1.05-14.57,3.82-31.76c2.49-15.05,3.64-24.23,3.46-27.55c-0.11-1.99-0.78-3.31-2.02-3.98
		c-1.24-0.66-3.38-0.91-6.43-0.74c-4.38,0.24-7.62,1.29-9.71,3.14c-2.1,1.85-3.56,4.79-4.4,8.83c-2.53,11.99-5.26,22.13-8.19,30.41
		c-2.94,8.28-5.78,14.5-8.55,18.65c-2.77,4.15-5.14,6.28-7.13,6.39c-1.46,0.08-2.55-0.42-3.28-1.51c-0.73-1.09-1.17-3.03-1.32-5.82
		c-0.26-4.65,0.55-14.01,2.43-28.09c0.57-4.03,1.38-8.53,2.44-13.51c1.12-6.18,1.65-9.81,1.59-10.87c-0.1-1.86-0.75-3.22-1.93-4.09
		c-1.18-0.86-3.23-1.22-6.15-1.05c-5.17,0.29-8.91,1.36-11.21,3.22c-2.29,1.86-3.99,4.82-5.1,8.87c-2.54,9.46-4.23,18.38-5.1,26.74
		c-0.62,5.96-0.74,12.47-0.64,19.23c-3.46,4.15-6.62,7.38-9.44,9.59c-4.02,3.16-8.22,4.85-12.6,5.09
		c-4.65,0.26-8.34-0.93-11.08-3.57s-4.27-6.75-4.58-12.33c-0.27-4.78,0.08-10.52,1.04-17.23l8.98-57.61
		c1.26-8.46,1.73-15.6,1.4-21.44c-0.58-10.35-3.79-18.46-9.64-24.32c-5.86-5.87-14.22-8.5-25.1-7.89
		c-13.81,0.77-25.53,6.51-35.19,17.24c-9.65,10.72-17.25,26.09-22.79,46.1c1.31-14.71,1.75-25.92,1.32-33.62
		c-0.48-8.63-2.67-15.1-6.57-19.41c-3.9-4.3-9.5-6.26-16.8-5.85c-8.76,0.49-16.99,3.38-24.68,8.66
		c-7.69,5.29-14.55,12.56-20.55,21.81c-1.96,3.04-3.28,5.61-3.96,7.71c-0.69,2.1-0.96,4.28-0.83,6.54c0.13,2.26,0.93,4.24,2.43,5.96
		c1.49,1.71,3.17,2.52,5.03,2.42c2.25-0.13,4.24-1.5,5.96-4.13c5.27-8.01,10.31-13.92,15.09-17.71s8.83-5.78,12.15-5.97
		c4.38-0.24,6.74,2.62,7.07,8.59c0.3,5.31,0.07,13.31-0.66,24C98.27,151,97.28,163,96.06,174.46c-1.23,11.45-1.93,17.98-2.11,19.59
		c-1.33,11.92-2.23,20.83-2.7,26.71c-0.48,5.89-0.59,10.88-0.36,15c0.34,6.11,1.63,10.19,3.88,12.27c2.24,2.07,5.82,2.97,10.73,2.7
		c5.17-0.29,8.59-1.81,10.23-4.56c1.64-2.75,2.74-7.54,3.3-14.36c2.2-29.67,6.17-54.16,11.89-73.45
		c5.72-19.29,12.31-33.4,19.8-42.34c7.49-8.94,15.22-13.63,23.18-14.07c4.38-0.24,7.84,0.83,10.37,3.22
		c2.53,2.39,3.91,5.71,4.15,9.95c0.15,2.66,0.09,5.35-0.15,8.1c-0.25,2.74-0.62,5.66-1.11,8.75c-0.5,3.09-0.84,5.24-1.04,6.45
		l-5.94,36.87c-1.29,8.06-2.15,14.7-2.59,19.91c-0.44,5.22-0.54,10.02-0.3,14.4c0.63,11.28,4.31,20.1,11.06,26.44
		c6.74,6.35,15.75,9.21,27.04,8.58c7.43-0.41,14.42-2.73,20.98-6.96c3.5-2.25,6.98-5.2,10.44-8.75c0.93,1.96,1.97,3.82,3.26,5.49
		c4.09,5.3,9.12,7.78,15.09,7.45c5.17-0.29,9.88-2.98,14.12-8.07c4.24-5.09,7.24-12.22,9-21.37c0.49,8.89,2.37,15.71,5.63,20.45
		c3.26,4.75,8.07,6.94,14.45,6.58c8.36-0.47,15.7-3.13,22.02-8.01c6.32-4.87,12.13-10.99,17.45-18.34c0.15-0.2,0.25-0.45,0.4-0.65
		c7.02,16.1,19.38,23.72,37.17,22.73c8.76-0.49,16.4-3.17,22.92-8.06c2.79-2.09,5.44-4.45,8.01-6.99c0.53,1.99,1.11,3.78,1.77,5.25
		c2.35,5.2,6.05,7.65,11.09,7.37c4.11-0.23,7.08-1.49,8.88-3.79c1.8-2.3,3.26-6.6,4.37-12.93c1.55-8.2,3.7-16.05,6.48-23.52
		c2.78-7.47,5.67-13.52,8.68-18.15c3-4.62,5.5-6.99,7.49-7.1c1.45-0.08,2.25,0.94,2.36,3.06c0.05,0.93,0.02,2.73-0.1,5.4
		c-0.28,2.01-0.38,4.01-0.26,6.01c0.34,6.11,2.43,10.85,6.28,14.23c3.85,3.38,9.29,4.87,16.32,4.48c4.74-0.26,9.2-1.56,13.4-3.77
		c-0.31,5.13-0.58,10.32-0.75,15.65c-0.12,2.67-0.15,4.54-0.09,5.6c0.21,3.72,1.15,6.39,2.84,8.03c1.68,1.63,4.65,2.34,8.9,2.1
		c4.78-0.27,8.25-1.33,10.41-3.17c2.16-1.85,3.25-4.9,3.28-9.17c0.12-19.31,2.38-43.33,6.78-72.07c0.16-1.87,0.23-3.14,0.19-3.8
		C534.37,135.12,531.38,132.96,525.68,133.27z M370.03,108.09c1.7-8.95,3.63-15.98,5.81-21.09c2.18-5.12,4.27-7.73,6.25-7.84
		c2.92-0.16,4.6,3.67,5.03,11.5c0.38,6.9-1.15,14.67-4.59,23.32c-3.45,8.65-8.9,16.57-16.35,23.77
		C367.05,126.92,368.32,117.04,370.03,108.09z"/>
	<path id="XMLID_10_" class="st0" d="M711.9,54.61c-9.79-4.78-20.58-6.84-32.39-6.19c-15.4,0.86-29.2,5.82-41.41,14.89
		s-21.56,21.5-28.07,37.31c-6.51,15.81-9.2,33.8-8.08,53.96c0.8,14.33,4.27,26.49,10.41,36.46c6.15,9.98,14.11,17.36,23.9,22.13
		c9.78,4.78,20.58,6.84,32.39,6.19c15.39-0.86,29.19-5.82,41.4-14.89c12.21-9.07,21.57-21.5,28.08-37.3
		c6.51-15.8,9.2-33.79,8.08-53.97c-0.8-14.33-4.27-26.48-10.41-36.46C729.65,66.78,721.68,59.4,711.9,54.61z M712.91,157.1
		c-3.62,11.58-9.2,20.78-16.73,27.59c-7.55,6.81-16.49,10.5-26.84,11.08c-10.48,0.58-19.27-3.02-26.36-10.81
		c-7.09-7.79-11.07-19.58-11.95-35.38c-0.81-14.46,0.67-27.49,4.42-39.08c3.75-11.59,9.36-20.76,16.84-27.5
		c7.48-6.74,16.32-10.39,26.55-10.96c10.48-0.58,19.27,3.02,26.36,10.81c7.09,7.79,11.08,19.58,11.96,35.38
		C717.94,132.56,716.53,145.52,712.91,157.1z"/>
	<path id="XMLID_6_" class="st0" d="M1009.49,143.49c-1.19,0.07-2.39,0.2-3.57,0.4c-1.19,0.2-2.31,0.39-3.37,0.59
		c-6.45,1.29-12.33,2.08-17.64,2.38c-1.59,0.09-2.98,0.1-4.19,0.04c-3.73-0.06-6.93-0.02-9.58,0.13c-1.46,0.08-3.06,1.17-4.81,3.26
		c-1.75,2.1-3.18,4.5-4.29,7.23s-1.55,4.95-1.32,6.66c2.99,10.62,5.45,20.73,7.38,30.34c1.93,9.61,3.18,19.59,3.76,29.94
		c0.77,13.8-0.84,20.82-4.82,21.04c-2.12,0.12-4.05-7-5.78-21.35c-1.73-14.35-2.97-28.35-3.74-42.02
		c-0.55-9.82-0.52-21.27,0.08-34.35c35.25-38.83,52-73.85,50.27-105.04c-0.52-9.42-2.7-16.82-6.53-22.2s-8.86-7.89-15.09-7.55
		c-11.55,0.64-21.66,9.83-30.32,27.55c-8.67,17.72-15.02,39.84-19.07,66.36c-3.2,20.98-4.62,41.62-4.4,61.95
		c-3.18,3.99-5.95,7.2-8.19,9.44c-3.47,3.46-6.53,5.26-9.19,5.4c-1.72,0.1-3.16-0.52-4.3-1.86c-1.14-1.33-1.78-3.26-1.92-5.78
		c-0.22-3.98,1.05-14.57,3.82-31.76c2.49-15.05,3.64-24.23,3.46-27.55c-0.11-1.99-0.78-3.31-2.02-3.98
		c-1.24-0.66-3.38-0.91-6.43-0.74c-4.38,0.24-7.62,1.29-9.71,3.14c-2.1,1.85-3.56,4.79-4.4,8.83c-2.53,11.99-5.26,22.13-8.19,30.41
		c-2.94,8.28-5.78,14.5-8.55,18.65c-2.77,4.15-5.14,6.28-7.13,6.39c-1.46,0.08-2.55-0.42-3.28-1.51c-0.73-1.09-1.17-3.03-1.32-5.82
		c-0.26-4.65,0.55-14.01,2.43-28.09c0.57-4.03,1.38-8.53,2.44-13.51c1.12-6.18,1.65-9.81,1.59-10.87c-0.1-1.86-0.75-3.22-1.93-4.09
		c-1.18-0.86-3.23-1.22-6.15-1.05c-5.17,0.29-8.91,1.36-11.21,3.22c-2.29,1.86-3.99,4.82-5.1,8.87c-2.54,9.46-4.23,18.38-5.1,26.74
		c-0.61,5.9-0.74,12.34-0.64,19.03c-4.2,4.63-8.95,8.63-14.31,11.95c-7.4,4.61-14.09,7.08-20.05,7.41
		c-9.29,0.52-15.77-2.18-19.42-8.11c15.44-4.72,26.27-10.55,32.47-17.48c6.21-6.93,9.05-14.98,8.54-24.14
		c-0.44-7.83-3.1-13.9-8-18.22c-4.9-4.32-11.2-6.26-18.9-5.84c-8.63,0.48-16.23,3.23-22.81,8.26c-6.58,5.03-11.57,11.6-14.98,19.7
		c-3.41,8.11-4.86,16.75-4.35,25.9c0.73,13.14,5.15,23.28,13.27,30.41c8.12,7.14,19.15,10.32,33.08,9.54
		c10.22-0.57,19.67-3.62,28.35-9.16c3.94-2.52,7.4-5.12,10.5-7.78c1,2.26,2.14,4.41,3.6,6.29c4.09,5.3,9.12,7.78,15.09,7.45
		c5.17-0.29,9.88-2.98,14.12-8.07c4.24-5.09,7.24-12.22,9-21.37c0.49,8.89,2.37,15.71,5.63,20.45c3.26,4.75,8.07,6.94,14.45,6.58
		c8.36-0.47,15.7-3.13,22.02-8.01c1.62-1.25,3.2-2.59,4.76-4c1.68,22.73,4.64,40,8.88,51.77c4.8,13.31,11.98,19.7,21.53,19.17
		c7.56-0.42,13.46-4.54,17.68-12.36c4.22-7.83,5.93-18.91,5.14-33.24c-0.36-6.5-1.39-14.73-3.07-24.69c-1.68-9.95-3.62-19-5.8-27.13
		c6.04,0.86,10.65,1.21,13.84,1.03c16.45-0.92,24.39-6.61,23.81-17.1C1015.22,145.96,1013.2,143.28,1009.49,143.49z M966.32,78.3
		c2.71-13.53,5.59-24.44,8.66-32.73c3.06-8.29,5.79-12.5,8.18-12.63c3.31-0.18,5.2,3.77,5.65,11.86c0.5,11.43-1.74,23.83-6.71,37.22
		c-4.98,13.39-12.44,26.42-22.39,39.08C961.41,106.09,963.61,91.83,966.32,78.3z M783.6,167.84c-0.45-8.09,0.86-15.09,3.92-20.98
		c3.07-5.89,7.06-8.98,11.96-9.25c2.39-0.13,4.32,0.53,5.8,1.97c1.48,1.45,2.29,3.44,2.43,5.96c0.27,4.91-1.75,9.35-6.05,13.32
		c-4.31,3.97-10.32,7.1-18.05,9.39L783.6,167.84z"/>
	<path id="XMLID_2_" class="st0" d="M19.61,273.68c0,0,3.86-0.57,11.09-1.64c7.24-0.97,17.84-2.61,31.35-4.27
		c13.51-1.72,29.92-3.91,48.75-5.99c18.83-2.19,40.08-4.68,63.28-6.94c23.19-2.41,48.32-5.01,74.93-7.26
		c26.6-2.35,54.64-5.03,83.69-7.07c29.05-2.09,59.03-4.76,89.55-6.53c30.51-1.9,61.51-3.84,92.51-5.77
		c31.02-1.52,62.04-3.05,92.58-4.55c30.53-1.69,60.62-2.31,89.72-3.47c29.1-1.18,57.26-1.68,83.96-2.27
		c26.69-0.71,51.95-0.94,75.27-1.1c23.31-0.31,44.7-0.22,63.66-0.11c18.95-0.01,35.5,0.34,49.12,0.56
		c27.24,0.49,42.84,1.18,42.84,1.18s-15.42,2.42-42.44,5.93c-13.51,1.73-29.91,3.92-48.75,6.01c-18.83,2.21-40.08,4.68-63.28,6.96
		c-23.19,2.43-48.32,5.01-74.93,7.26c-26.6,2.38-54.64,5.01-83.69,7.06c-29.05,2.07-59.03,4.8-89.55,6.51
		c-30.51,1.9-61.51,3.83-92.51,5.75c-31.02,1.52-62.04,3.03-92.58,4.53c-30.53,1.63-60.62,2.29-89.72,3.45
		c-29.09,1.19-57.26,1.65-83.96,2.26c-26.69,0.72-51.95,0.92-75.27,1.1c-23.31,0.32-44.7,0.21-63.66,0.12
		c-18.95,0.02-35.5-0.34-49.12-0.55c-13.62-0.15-24.33-0.6-31.63-0.76C23.51,273.82,19.61,273.68,19.61,273.68z"/>
</g>
</svg>
