<?xml version="1.0" encoding="utf-8"?>
<!-- Generator: Adobe Illustrator 25.0.1, SVG Export Plug-In . SVG Version: 6.00 Build 0)  -->
<svg version="1.1" id="Calque_1" xmlns="http://www.w3.org/2000/svg" xmlns:xlink="http://www.w3.org/1999/xlink" x="0px" y="0px"
	 viewBox="0 0 277.27 84.36" style="enable-background:new 0 0 277.27 84.36;" xml:space="preserve">
<style type="text/css">
	.st0{fill:#C2171D;stroke:#FFFFFF;stroke-width:0.7087;stroke-miterlimit:10;}
</style>
<g id="XMLID_5_">
	<path id="XMLID_17_" class="st0" d="M140.2,30.17c-0.81-0.56-1.84-0.81-3.08-0.74c-1.38,0.08-2.52,0.54-3.4,1.38
		c-0.88,0.84-1.29,1.86-1.23,3.04c0.07,1.18,0.47,2.08,1.22,2.7c0.74,0.62,1.82,0.89,3.24,0.81c1.45-0.08,2.59-0.54,3.42-1.38
		c0.83-0.84,1.21-1.94,1.14-3.28C141.45,31.57,141.01,30.74,140.2,30.17z"/>
	<path id="XMLID_14_" class="st0" d="M136.58,40.72c-1.38,0.08-2.37,0.34-2.97,0.8c-0.6,0.46-1.01,1.21-1.22,2.27
		c-0.41,2.19-0.74,4.51-1.01,6.9c-0.89,0.79-1.67,1.22-2.34,1.25c-0.84,0.05-1.3-0.52-1.36-1.7c-0.02-0.34,0.07-1.19,0.26-2.55
		c0.21-1.7,0.3-2.77,0.28-3.21c-0.12-2.19-1.28-3.23-3.47-3.1c-1.11,0.06-2.31,0.52-3.6,1.37c-1.29,0.85-2.57,2.22-3.85,4.12
		c-1.28,1.9-2.4,4.33-3.35,7.29c0.05-1.49,0.15-2.75,0.3-3.77c0.15-1.02,0.35-2.22,0.61-3.58c0.4-1.92,0.59-3.14,0.56-3.68
		c-0.03-0.47-0.18-0.78-0.46-0.94c-0.28-0.15-0.76-0.21-1.43-0.17c-1.25,0.07-2.2,0.35-2.87,0.84c-0.67,0.49-1.12,1.24-1.37,2.23
		c-0.95,3.7-1.33,7.57-1.2,11.58c-0.97,1.17-1.84,2.1-2.62,2.78c-1.06,0.94-2.32,1.45-3.77,1.53c-1.79,0.1-3.13-0.54-4.04-1.91
		s-1.45-3.81-1.65-7.31c-0.05-0.94-0.09-2.26-0.12-3.95l6.17-0.34c3.81-0.21,5.65-1.48,5.52-3.81c-0.04-0.64-0.18-1.07-0.43-1.29
		c-0.25-0.22-0.64-0.32-1.18-0.29l-5.66,0.32c4.17-4.12,6.1-8.79,5.81-14.02c-0.11-1.89-0.6-3.43-1.48-4.64
		c-0.88-1.2-2.03-1.76-3.44-1.69c-1.92,0.11-3.67,1.12-5.23,3.03c-1.57,1.91-2.86,4.44-3.86,7.57c-1.01,3.13-1.7,6.57-2.06,10.31
		l-2.88,0.16c-1.52,0.08-2.22,1.07-2.12,2.96c0.05,0.81,0.25,1.39,0.63,1.74c0.37,0.35,1.07,0.5,2.08,0.44l1.97-0.11
		c-0.02,1.52,0.02,3.03,0.1,4.51c0.06,1.1,0.17,2.13,0.31,3.1c-0.29,0.13-0.57,0.31-0.81,0.63c-1.45,1.94-2.61,3.35-3.49,4.23
		c-0.88,0.88-1.66,1.34-2.33,1.37c-0.44,0.02-0.8-0.13-1.09-0.47c-0.29-0.34-0.45-0.83-0.49-1.47c-0.06-1.01,0.27-3.7,0.97-8.07
		c0.63-3.82,0.93-6.16,0.88-7c-0.03-0.51-0.2-0.84-0.51-1.01c-0.31-0.17-0.86-0.23-1.63-0.19c-1.11,0.06-1.94,0.33-2.47,0.8
		c-0.53,0.47-0.91,1.22-1.12,2.24c-0.64,3.05-1.34,5.62-2.08,7.72c-0.75,2.1-1.47,3.68-2.17,4.74c-0.7,1.05-1.31,1.59-1.81,1.62
		c-0.37,0.02-0.65-0.11-0.83-0.38c-0.18-0.28-0.3-0.77-0.34-1.48c-0.07-1.18,0.14-3.56,0.62-7.14c0.15-1.02,0.35-2.17,0.62-3.43
		c0.28-1.57,0.42-2.49,0.4-2.76c-0.03-0.47-0.19-0.82-0.49-1.04c-0.3-0.22-0.82-0.31-1.56-0.27c-1.31,0.07-2.26,0.35-2.85,0.82
		c-0.58,0.47-1.01,1.22-1.29,2.25c-0.64,2.4-1.08,4.67-1.29,6.79c-0.16,1.51-0.19,3.17-0.16,4.88c-0.88,1.05-1.68,1.88-2.4,2.44
		c-1.02,0.8-2.09,1.23-3.2,1.29c-1.18,0.07-2.12-0.24-2.82-0.91c-0.7-0.67-1.08-1.72-1.16-3.13c-0.07-1.21,0.02-2.67,0.26-4.38
		l2.28-14.63c0.32-2.15,0.44-3.96,0.36-5.45c-0.15-2.63-0.96-4.69-2.45-6.18c-1.49-1.49-3.61-2.16-6.38-2
		c-3.51,0.2-6.49,1.65-8.94,4.38s-4.38,6.63-5.79,11.71c0.33-3.74,0.44-6.58,0.34-8.54c-0.12-2.19-0.68-3.83-1.67-4.93
		c-0.99-1.09-2.41-1.59-4.27-1.49c-2.22,0.12-4.32,0.86-6.27,2.2c-1.95,1.34-3.7,3.19-5.22,5.54c-0.5,0.77-0.83,1.43-1.01,1.96
		c-0.17,0.53-0.24,1.09-0.21,1.66c0.03,0.57,0.24,1.08,0.62,1.51c0.38,0.44,0.8,0.64,1.28,0.61c0.57-0.03,1.08-0.38,1.51-1.05
		c1.34-2.04,2.62-3.54,3.83-4.5c1.21-0.96,2.24-1.47,3.09-1.52c1.11-0.06,1.71,0.67,1.8,2.18c0.08,1.35,0.02,3.38-0.17,6.1
		c-0.2,3.19-0.45,6.24-0.76,9.15c-0.31,2.91-0.49,4.57-0.54,4.98c-0.34,3.03-0.57,5.29-0.69,6.78c-0.12,1.5-0.15,2.76-0.09,3.81
		c0.09,1.55,0.41,2.59,0.98,3.12c0.57,0.53,1.48,0.75,2.73,0.68c1.31-0.07,2.18-0.46,2.6-1.16c0.42-0.7,0.7-1.92,0.84-3.65
		c0.56-7.54,1.57-13.76,3.02-18.66c1.45-4.9,3.13-8.48,5.03-10.76c1.9-2.27,3.87-3.46,5.89-3.57c1.11-0.06,1.99,0.21,2.63,0.82
		c0.64,0.61,0.99,1.45,1.05,2.53c0.04,0.68,0.02,1.36-0.04,2.06c-0.06,0.7-0.16,1.44-0.28,2.22c-0.13,0.79-0.21,1.33-0.26,1.64
		l-1.51,9.37c-0.33,2.05-0.55,3.73-0.66,5.06c-0.11,1.33-0.14,2.54-0.08,3.66c0.16,2.87,1.1,5.11,2.81,6.72
		c1.71,1.61,4,2.34,6.87,2.18c1.89-0.11,3.66-0.69,5.33-1.77c0.89-0.57,1.77-1.32,2.65-2.22c0.24,0.5,0.5,0.97,0.83,1.39
		c1.04,1.35,2.32,1.98,3.83,1.89c1.31-0.07,2.51-0.76,3.59-2.05c1.08-1.29,1.84-3.1,2.29-5.43c0.13,2.26,0.6,3.99,1.43,5.2
		c0.83,1.21,2.05,1.76,3.67,1.67c2.12-0.12,3.99-0.8,5.59-2.04c1.61-1.24,3.08-2.79,4.43-4.66c0.04-0.05,0.06-0.11,0.1-0.17
		c1.78,4.09,4.92,6.02,9.44,5.77c2.23-0.12,4.17-0.81,5.82-2.05c0.71-0.53,1.38-1.13,2.03-1.78c0.13,0.5,0.28,0.96,0.45,1.33
		c0.6,1.32,1.54,1.94,2.82,1.87c1.05-0.06,1.8-0.38,2.25-0.96c0.46-0.58,0.83-1.68,1.11-3.28c0.39-2.08,0.94-4.08,1.65-5.98
		c0.71-1.9,1.44-3.44,2.2-4.61c0.76-1.17,1.4-1.78,1.9-1.8c0.37-0.02,0.57,0.24,0.6,0.78c0.01,0.24,0,0.69-0.03,1.37
		c-0.07,0.51-0.1,1.02-0.07,1.53c0.09,1.55,0.62,2.76,1.6,3.61c0.98,0.86,2.36,1.24,4.15,1.14c1.2-0.07,2.34-0.4,3.4-0.96
		c-0.08,1.3-0.15,2.62-0.19,3.97c-0.03,0.68-0.04,1.15-0.02,1.42c0.05,0.94,0.29,1.62,0.72,2.04c0.43,0.41,1.18,0.59,2.26,0.53
		c1.21-0.07,2.1-0.34,2.64-0.81c0.55-0.47,0.83-1.25,0.83-2.33c0.03-4.91,0.61-11.01,1.72-18.31c0.04-0.48,0.06-0.8,0.05-0.97
		C138.79,41.19,138.03,40.64,136.58,40.72z M97.04,34.32c0.43-2.27,0.92-4.06,1.48-5.36c0.55-1.3,1.08-1.96,1.59-1.99
		c0.74-0.04,1.17,0.93,1.28,2.92c0.1,1.75-0.29,3.73-1.17,5.92c-0.88,2.2-2.26,4.21-4.15,6.04C96.28,39.11,96.61,36.6,97.04,34.32z"
		/>
	<path id="XMLID_10_" class="st0" d="M183.89,20.74c-2.49-1.21-5.23-1.74-8.23-1.57c-3.91,0.22-7.42,1.48-10.52,3.78
		c-3.1,2.3-5.48,5.46-7.13,9.48c-1.65,4.02-2.34,8.58-2.05,13.71c0.2,3.64,1.08,6.73,2.65,9.26c1.56,2.53,3.58,4.41,6.07,5.62
		c2.48,1.22,5.23,1.74,8.23,1.57c3.91-0.22,7.42-1.48,10.52-3.78c3.1-2.3,5.48-5.46,7.13-9.48c1.65-4.01,2.34-8.58,2.05-13.71
		c-0.2-3.64-1.08-6.73-2.65-9.26C188.4,23.83,186.37,21.96,183.89,20.74z M184.14,46.77c-0.92,2.94-2.34,5.28-4.25,7.01
		c-1.92,1.73-4.19,2.67-6.82,2.81c-2.66,0.15-4.9-0.77-6.7-2.75c-1.8-1.98-2.81-4.97-3.04-8.99c-0.2-3.67,0.17-6.98,1.12-9.93
		c0.95-2.94,2.38-5.27,4.28-6.98c1.9-1.71,4.15-2.64,6.74-2.79c2.66-0.15,4.9,0.77,6.7,2.75c1.8,1.98,2.81,4.98,3.04,8.99
		C185.42,40.54,185.06,43.83,184.14,46.77z"/>
	<path id="XMLID_6_" class="st0" d="M259.49,43.32c-0.3,0.02-0.61,0.05-0.91,0.1c-0.3,0.05-0.59,0.1-0.85,0.15
		c-1.64,0.33-3.13,0.53-4.48,0.6c-0.4,0.02-0.76,0.03-1.06,0.01c-0.95-0.01-1.76,0-2.43,0.03c-0.37,0.02-0.78,0.3-1.22,0.83
		c-0.44,0.53-0.81,1.14-1.09,1.84c-0.28,0.69-0.39,1.26-0.34,1.69c0.76,2.7,1.38,5.27,1.87,7.71c0.49,2.44,0.81,4.98,0.96,7.61
		c0.2,3.51-0.21,5.29-1.22,5.34c-0.54,0.03-1.03-1.78-1.47-5.42c-0.44-3.64-0.76-7.2-0.95-10.68c-0.14-2.49-0.13-5.4,0.02-8.73
		c8.95-9.86,13.21-18.76,12.77-26.68c-0.13-2.39-0.69-4.27-1.66-5.64c-0.97-1.37-2.25-2.01-3.83-1.92c-2.93,0.16-5.5,2.5-7.7,7
		c-2.2,4.5-3.82,10.12-4.84,16.86c-0.81,5.33-1.17,10.57-1.12,15.74c-0.81,1.01-1.51,1.83-2.08,2.4c-0.88,0.88-1.66,1.34-2.33,1.37
		c-0.44,0.02-0.8-0.13-1.09-0.47c-0.29-0.34-0.45-0.83-0.49-1.47c-0.06-1.01,0.27-3.7,0.97-8.07c0.63-3.82,0.93-6.16,0.88-7
		c-0.03-0.51-0.2-0.84-0.51-1.01c-0.31-0.17-0.86-0.23-1.63-0.19c-1.11,0.06-1.94,0.33-2.47,0.8c-0.53,0.47-0.91,1.22-1.12,2.24
		c-0.64,3.05-1.34,5.62-2.08,7.72c-0.75,2.1-1.47,3.68-2.17,4.74c-0.7,1.05-1.31,1.59-1.81,1.62c-0.37,0.02-0.65-0.11-0.83-0.38
		c-0.18-0.28-0.3-0.77-0.34-1.48c-0.07-1.18,0.14-3.56,0.62-7.14c0.15-1.02,0.35-2.17,0.62-3.43c0.28-1.57,0.42-2.49,0.4-2.76
		c-0.03-0.47-0.19-0.82-0.49-1.04c-0.3-0.22-0.82-0.31-1.56-0.27c-1.31,0.07-2.26,0.35-2.85,0.82c-0.58,0.47-1.01,1.22-1.29,2.25
		c-0.64,2.4-1.08,4.67-1.29,6.79c-0.16,1.5-0.19,3.14-0.16,4.83c-1.07,1.17-2.27,2.19-3.63,3.04c-1.88,1.17-3.58,1.8-5.09,1.88
		c-2.36,0.13-4.01-0.55-4.93-2.06c3.92-1.2,6.67-2.68,8.25-4.44s2.3-3.81,2.17-6.13c-0.11-1.99-0.79-3.53-2.03-4.63
		c-1.25-1.1-2.85-1.59-4.8-1.48c-2.19,0.12-4.12,0.82-5.79,2.1c-1.67,1.28-2.94,2.95-3.8,5.01c-0.87,2.06-1.23,4.25-1.1,6.58
		c0.19,3.34,1.31,5.91,3.37,7.73c2.06,1.81,4.86,2.62,8.4,2.42c2.6-0.14,5-0.92,7.2-2.33c1-0.64,1.88-1.3,2.67-1.98
		c0.25,0.57,0.54,1.12,0.91,1.6c1.04,1.35,2.32,1.98,3.83,1.89c1.31-0.07,2.51-0.76,3.59-2.05c1.08-1.29,1.84-3.1,2.29-5.43
		c0.13,2.26,0.6,3.99,1.43,5.2c0.83,1.21,2.05,1.76,3.67,1.67c2.12-0.12,3.99-0.8,5.59-2.04c0.41-0.32,0.81-0.66,1.21-1.02
		c0.43,5.77,1.18,10.16,2.26,13.15c1.22,3.38,3.04,5,5.47,4.87c1.92-0.11,3.42-1.15,4.49-3.14c1.07-1.99,1.51-4.8,1.3-8.44
		c-0.09-1.65-0.35-3.74-0.78-6.27c-0.43-2.53-0.92-4.83-1.47-6.89c1.53,0.22,2.71,0.31,3.52,0.26c4.18-0.23,6.2-1.68,6.05-4.34
		C260.94,43.95,260.43,43.26,259.49,43.32z M248.52,26.76c0.69-3.44,1.42-6.21,2.2-8.32c0.78-2.11,1.47-3.18,2.08-3.21
		c0.84-0.05,1.32,0.96,1.44,3.01c0.13,2.9-0.44,6.05-1.71,9.45c-1.27,3.4-3.16,6.71-5.69,9.93
		C247.27,33.82,247.83,30.19,248.52,26.76z M202.1,49.5c-0.11-2.06,0.22-3.83,1-5.33c0.78-1.5,1.79-2.28,3.04-2.35
		c0.61-0.03,1.1,0.13,1.47,0.5c0.38,0.37,0.58,0.87,0.62,1.51c0.07,1.25-0.44,2.38-1.54,3.38c-1.09,1.01-2.62,1.8-4.58,2.39
		L202.1,49.5z"/>
</g>
<path id="XMLID_2_" class="st0" d="M8.03,76.39c0,0,0.98-0.15,2.82-0.42c1.84-0.25,4.53-0.66,7.96-1.08
	c3.43-0.44,7.6-0.99,12.39-1.52c4.78-0.56,10.18-1.19,16.08-1.76c5.89-0.61,12.28-1.27,19.03-1.84c6.76-0.6,13.88-1.28,21.26-1.8
	c7.38-0.53,15-1.21,22.75-1.66c7.75-0.48,15.63-0.98,23.5-1.47c7.88-0.39,15.76-0.77,23.52-1.15c7.75-0.43,15.4-0.59,22.79-0.88
	c7.39-0.3,14.54-0.43,21.33-0.58c6.78-0.18,13.2-0.24,19.12-0.28c5.92-0.08,11.36-0.05,16.17-0.03c4.81,0,9.02,0.09,12.48,0.14
	c6.92,0.12,10.88,0.3,10.88,0.3s-3.92,0.62-10.78,1.51c-3.43,0.44-7.6,1-12.38,1.53c-4.78,0.56-10.18,1.19-16.08,1.77
	c-5.89,0.62-12.28,1.27-19.03,1.84c-6.76,0.6-13.88,1.27-21.26,1.79c-7.38,0.53-14.99,1.22-22.75,1.65
	c-7.75,0.48-15.63,0.97-23.5,1.46c-7.88,0.39-15.76,0.77-23.52,1.15c-7.76,0.41-15.4,0.58-22.79,0.88
	c-7.39,0.3-14.55,0.42-21.33,0.57c-6.78,0.18-13.2,0.23-19.12,0.28c-5.92,0.08-11.36,0.05-16.17,0.03
	c-4.81,0.01-9.02-0.09-12.48-0.14c-3.46-0.04-6.18-0.15-8.04-0.19C9.02,76.43,8.03,76.39,8.03,76.39z"/>
</svg>
